<svg t="1620656438804" class="icon" viewBox="0 0 1024 1024" version="1.1" xmlns="http://www.w3.org/2000/svg" p-id="4148" width="200" height="200"><path d="M703.999707 469.333138h-341.333191a21.333324 21.333324 0 0 1 0-42.666649h341.333191a21.333324 21.333324 0 0 1 0 42.666649zM447.999813 298.666542h-85.333297a21.333324 21.333324 0 0 1 0-42.666649h85.333297a21.333324 21.333324 0 0 1 0 42.666649zM447.999813 383.99984h-85.333297a21.333324 21.333324 0 0 1 0-42.666649h85.333297a21.333324 21.333324 0 0 1 0 42.666649zM447.999813 554.666436h-85.333297a21.333324 21.333324 0 0 1 0-42.666649h85.333297a21.333324 21.333324 0 0 1 0 42.666649zM703.999707 298.666542h-85.333298a21.333324 21.333324 0 0 1 0-42.666649h85.333298a21.333324 21.333324 0 0 1 0 42.666649zM703.999707 383.99984h-85.333298a21.333324 21.333324 0 0 1 0-42.666649h85.333298a21.333324 21.333324 0 0 1 0 42.666649zM703.999707 554.666436h-85.333298a21.333324 21.333324 0 0 1 0-42.666649h85.333298a21.333324 21.333324 0 0 1 0 42.666649zM688.68238 228.650571a21.333324 21.333324 0 0 1-19.455992-12.543994C645.034398 162.602599 591.701087 127.999947 533.333111 127.999947s-111.701287 34.602652-135.893277 88.10663a21.333324 21.333324 0 0 1-34.517319 6.314664L299.903875 159.4026a21.333324 21.333324 0 0 1-3.114665-26.197322C347.775855 49.791979 436.223818 0 533.333111 0s185.557256 49.791979 236.543902 133.205278a21.333324 21.333324 0 0 1-3.114666 26.197322l-63.01864 63.018641a21.247991 21.247991 0 0 1-15.061327 6.22933zM342.357191 141.525274l30.67732 30.634654C408.149163 118.655951 468.309138 85.333298 533.333111 85.333298s125.183948 33.322653 160.2986 86.869297l30.677321-30.634654C680.106383 79.3173 609.919746 42.666649 533.333111 42.666649s-146.773272 36.650651-190.97592 98.858625z" fill="#f53131" p-id="4149"></path><path d="M533.333111 725.333031A192.213253 192.213253 0 0 1 341.333191 533.333111v-255.999893C341.333191 171.477262 427.477155 85.333298 533.333111 85.333298S725.333031 171.477262 725.333031 277.333218v255.999893c0 105.855956-86.143964 191.99992-191.99992 191.99992z m0-597.333084C450.986479 127.999947 383.99984 194.986585 383.99984 277.333218v255.999893c0 82.346632 66.986639 149.333271 149.333271 149.333271s149.333271-66.986639 149.333271-149.333271v-255.999893C682.666382 194.986585 615.679743 127.999947 533.333111 127.999947zM85.333298 1023.999573c-47.061314 0-85.333298-38.271984-85.333298-85.333297v-85.333298c0-47.061314 38.271984-85.333298 85.333298-85.333298s85.333298 38.271984 85.333298 85.333298v85.333298c0 47.061314-38.271984 85.333298-85.333298 85.333297z m0-213.333244c-23.55199 0-42.666649 19.157325-42.666649 42.666649v85.333298a42.709316 42.709316 0 0 0 85.333298 0v-85.333298c0-23.509324-19.114659-42.666649-42.666649-42.666649zM362.666516 1023.999573a21.247991 21.247991 0 0 1-18.303993-10.367995L255.999893 866.346306V1002.666249a21.333324 21.333324 0 0 1-42.666649 0v-213.333245a21.333324 21.333324 0 0 1 39.637317-10.965328L341.333191 925.652948V789.333004a21.333324 21.333324 0 0 1 42.666649 0v213.333245a21.333324 21.333324 0 0 1-21.333324 21.333324zM703.999707 1023.999573a21.333324 21.333324 0 0 1-19.797325-13.397327l-65.535973-163.839932-65.535973 163.797265a21.247991 21.247991 0 1 1-39.551983-15.829327l85.333297-213.333244c6.399997-16.213327 33.151986-16.213327 39.594651 0l85.333297 213.333244A21.333324 21.333324 0 0 1 703.999707 1023.999573z" fill="#f53131" p-id="4150"></path><path d="M682.666382 981.332924h-127.999946a21.333324 21.333324 0 0 1 0-42.666648h127.999946a21.333324 21.333324 0 0 1 0 42.666648zM789.333004 1023.999573a21.333324 21.333324 0 0 1-21.333324-21.333324v-213.333245a21.333324 21.333324 0 0 1 42.666649 0v213.333245a21.333324 21.333324 0 0 1-21.333325 21.333324zM1002.666249 1023.999573a21.077325 21.077325 0 0 1-11.818662-3.583998L895.999627 957.183601V1002.666249a21.333324 21.333324 0 0 1-42.666649 0v-85.077298V789.333004a21.333324 21.333324 0 0 1 21.333324-21.333324H938.666276c47.061314 0 85.333298 38.271984 85.333297 85.333298 0 45.013315-34.986652 81.962633-79.1893 85.119964l69.717304 46.463981A21.333324 21.333324 0 0 1 1002.666249 1023.999573zM895.999627 895.999627h42.666649a42.709316 42.709316 0 0 0 0-85.333298h-42.666649v85.333298z" fill="#f53131" p-id="4151"></path></svg>