<svg t="1620656051852" class="icon" viewBox="0 0 1024 1024" version="1.1" xmlns="http://www.w3.org/2000/svg" p-id="1284" width="200" height="200"><path d="M820.66 357.81c0 121.17-91.43 219.39-204.22 219.39-112.79 0-204.22-98.22-204.22-219.39 0-121.17 91.43-219.4 204.22-219.4 112.79 0 204.22 98.23 204.22 219.4z" fill="#f53131" p-id="1285"></path><path d="M491.67 844.98l-5.7 3.59c-34.65 21.91-50.19 27.5-69.19 27.5-37.44 0-77.69-10.62-118.71-31.08l302.37-226.01c151.91 0 276.2-124.98 276.2-277.55 0-153.26-123.63-277.55-276.2-277.55-152.58 0-276.09 124.3-276.09 277.55 0 19.11 2.12 38.9 5.7 57.23v0.66L156.22 753.88c-14.87 31.07-10.62 70.64 9.84 98.92l-1.45 1.45 19.78 18.33 0.68-0.67c7.82 6.37 21.91 16.99 41.69 28.95l20.45 14.87-4.92-6.37c2.8 1.45 4.92 2.8 7.83 4.25 56.56 30.4 112.34 45.94 165.99 45.94 40.9 0 70.64-13.41 113.01-40.25l5.7-3.57c73.44-46.61 110.22-48.07 209.81 34.65 7.05 6.37 16.21 9.17 26.16 9.17h4.25c10.62-0.67 20.46-6.37 27.5-14.87 14.09-17.66 11.96-43.03-5.7-57.22C676.1 785.74 601.88 775.8 491.67 844.98z m2.12-247.81L230.33 794.12s-0.67 0-1.45 0.67c0-2.8 0-4.25 0.67-5.7l142.74-290.85c30.4 43.82 72.09 78.36 121.5 98.93z m-87.52-256.42c0-108.09 87.64-196.4 194.95-196.4 107.3 0 194.94 88.3 194.94 196.4 0 108.09-87.64 196.39-194.94 196.39-108.1-0.1-194.95-88.3-194.95-196.39z m0 0" fill="#f53131" p-id="1286"></path></svg>