<svg t="1620658147448" class="icon" viewBox="0 0 1024 1024" version="1.1" xmlns="http://www.w3.org/2000/svg" p-id="1124" width="200" height="200"><path d="M720 0c-132.336 0-240 107.664-240 240 0 26.816 4.608 52.512 12.768 76.624L73.376 736l64 64-64 64 160 160h93.248L672 678.624 729.376 736l-100.688 100.688 22.624 22.624L774.624 736 672 633.376 313.376 992h-66.752l-128-128L160 822.624l64 64 419.392-419.376c24.096 8.144 49.792 12.752 76.608 12.752 132.336 0 240-107.664 240-240S852.336 0 720 0zM118.624 736L384 470.624 489.376 576 224 841.376 118.624 736zM512 553.376L406.624 448l99.568-99.552a241.184 241.184 0 0 0 105.376 105.376L512 553.376zM720 448c-114.688 0-208-93.312-208-208S605.312 32 720 32s208 93.312 208 208-93.312 208-208 208z" fill="#f53131" p-id="1125"></path></svg>