<svg t="1620657264693" class="icon" viewBox="0 0 1024 1024" version="1.1" xmlns="http://www.w3.org/2000/svg" p-id="5226" width="200" height="200"><path d="M273.066667 102.4l-68.266667-68.266667C87.771429 121.904762 9.752381 258.438095 0 414.47619h97.52381c9.752381-131.657143 73.142857-243.809524 175.542857-312.07619z m653.409523 312.07619h97.52381c-9.752381-156.038095-82.895238-292.571429-199.92381-380.342857l-68.266666 68.266667c97.52381 68.266667 160.914286 180.419048 170.666666 312.07619z m-97.523809 24.380953c0-151.161905-102.4-273.066667-243.809524-307.2V97.52381c0-39.009524-34.133333-73.142857-73.142857-73.142858S438.857143 58.514286 438.857143 97.52381v34.133333C297.447619 165.790476 195.047619 287.695238 195.047619 438.857143v268.190476l-97.523809 97.52381v48.761904h828.95238v-48.761904l-97.523809-97.52381V438.857143zM512 999.619048h19.504762c34.133333-4.87619 58.514286-29.257143 68.266667-58.514286 4.87619-9.754293 9.752381-24.380952 9.752381-39.009524h-195.04762c0 53.638095 43.885714 97.52381 97.52381 97.52381z" p-id="5227" fill="#f53131"></path></svg>