<svg t="1620656873489" class="icon" viewBox="0 0 1024 1024" version="1.1" xmlns="http://www.w3.org/2000/svg" p-id="836" width="200" height="200"><path d="M511.943111 51.2l14.051556 0.227556c242.858667 7.281778 439.068444 203.434667 446.520889 446.236444l0.227555 14.336-0.113778 142.734222a39.253333 39.253333 0 0 1-33.678222 36.636445l-5.688889 0.398222-2.048-0.056889a39.367111 39.367111 0 0 1-36.636444-33.564444l-0.398222-5.632V505.742222a382.691556 382.691556 0 0 0-368.64-375.751111L512 129.763556h-6.371556a382.691556 382.691556 0 0 0-375.637333 368.64L129.706667 512v6.371556a382.691556 382.691556 0 0 0 368.64 375.694222l13.539555 0.227555h367.843556a15.587556 15.587556 0 0 0 13.994666-12.117333l0.398223-3.413333v-41.073778a39.310222 39.310222 0 0 1 33.848889-36.636445l5.632-0.398222 1.991111 0.056889c18.830222 1.080889 34.076444 15.36 36.693333 33.621333l0.398222 5.575112v44.600888l-0.227555 2.730667c-4.096 45.511111-40.391111 81.180444-85.162667 85.219556l-8.533333 0.398222H504.32C258.275556 968.647111 58.88 770.844444 51.427556 526.051556L51.2 512 51.2 504.376889C55.239111 258.275556 253.041778 58.823111 497.777778 51.427556L511.943111 51.2z m0.227556 226.588444l1.877333 0.056889-0.113778 5.461334 0.341334-5.461334c19.342222 1.251556 34.872889 15.928889 37.546666 34.702223l0.341334 5.688888-0.056889 406.584889a40.391111 40.391111 0 0 1-34.531556 37.717334l-5.688889 0.398222-2.161778-0.056889a40.391111 40.391111 0 0 1-37.546666-34.702222l-0.341334-5.688889V318.236444a40.391111 40.391111 0 0 1 34.816-40.049777l5.518223-0.398223zM351.573333 378.88h1.934223l-0.113778 4.494222 0.284444-4.437333a40.391111 40.391111 0 0 1 37.432889 34.702222l0.398222 5.688889-0.056889 204.401778a40.448 40.448 0 0 1-34.474666 37.717333l-5.745778 0.398222h-2.161778a40.391111 40.391111 0 0 1-37.489778-34.702222l-0.398222-5.688889V419.271111a40.391111 40.391111 0 0 1 34.872889-40.106667l5.518222-0.341333z m321.137778 0h1.991111l-0.170666 4.494222 0.341333-4.437333a40.391111 40.391111 0 0 1 37.432889 34.702222l0.398222 5.688889-0.056889 204.458667a40.504889 40.504889 0 0 1-34.531555 37.660444l-5.688889 0.398222h-2.161778a40.448 40.448 0 0 1-37.546667-34.702222l-0.341333-5.688889V419.271111a40.391111 40.391111 0 0 1 34.872889-40.106667l5.461333-0.341333z" fill="#f53131" p-id="837"></path></svg>