<svg t="1620656506506" class="icon" viewBox="0 0 1024 1024" version="1.1" xmlns="http://www.w3.org/2000/svg" p-id="891" width="200" height="200"><path d="M165.76 386.88s376-276.8 679.68-24.64c0 0 169.92 225.28 20.8 469.12 0 0-142.72-234.56-379.52-193.6 0 0-196.16 7.36-325.12 193.6-0.32 0-121.6-230.72 4.16-444.48z" fill="#f53131" p-id="892"></path><path d="M866.24 856.32l-11.2-18.24C782.4 720 654.72 649.6 513.6 649.6s-268.8 70.4-341.44 188.48l-11.2 18.24-10.88-18.24C110.4 770.24 89.6 692.16 89.6 612.8 89.6 371.84 279.68 176 513.6 176S937.6 371.84 937.6 612.8c0 79.36-20.8 157.44-60.48 224.96l-10.88 18.56zM513.6 624c74.24 0 147.52 19.2 211.52 55.36 55.68 31.36 103.68 75.2 139.84 127.36 30.72-59.52 47.04-125.76 47.04-193.92C912 385.92 733.12 201.6 513.6 201.6S115.2 385.92 115.2 612.8c0 67.84 16.32 134.4 47.04 193.92 36.16-52.16 84.16-96 139.84-127.36 64-36.16 137.28-55.36 211.52-55.36z" fill="#f53131" p-id="893"></path><path d="M377.6 456.32s134.08-130.88 262.4-24.64c0 0-81.92-166.4-262.4-8.32v32.96z" fill="#f53131" p-id="894"></path><path d="M515.2 640c-82.88 0-150.4-67.52-150.4-150.4s67.52-150.4 150.4-150.4 150.4 67.52 150.4 150.4-67.52 150.4-150.4 150.4z m0-275.2c-68.8 0-124.8 56-124.8 124.8s56 124.8 124.8 124.8 124.8-56 124.8-124.8-56-124.8-124.8-124.8z" fill="#f53131" p-id="895"></path><path d="M371.2 809.6m-38.4 0a38.4 38.4 0 1 0 76.8 0 38.4 38.4 0 1 0-76.8 0Z" fill="#f53131" p-id="896"></path><path d="M371.2 857.6c-26.56 0-48-21.44-48-48s21.44-48 48-48 48 21.44 48 48-21.44 48-48 48z m0-76.8c-16 0-28.8 12.8-28.8 28.8s12.8 28.8 28.8 28.8 28.8-12.8 28.8-28.8-12.8-28.8-28.8-28.8z" fill="#f53131" p-id="897"></path><path d="M524.8 809.6m-38.4 0a38.4 38.4 0 1 0 76.8 0 38.4 38.4 0 1 0-76.8 0Z" fill="#f53131" p-id="898"></path><path d="M524.8 857.6c-26.56 0-48-21.44-48-48s21.44-48 48-48 48 21.44 48 48-21.44 48-48 48z m0-76.8c-16 0-28.8 12.8-28.8 28.8s12.8 28.8 28.8 28.8 28.8-12.8 28.8-28.8-12.8-28.8-28.8-28.8z" fill="#f53131" p-id="899"></path><path d="M678.4 809.6m-38.4 0a38.4 38.4 0 1 0 76.8 0 38.4 38.4 0 1 0-76.8 0Z" fill="#f53131" p-id="900"></path><path d="M678.4 857.6c-26.56 0-48-21.44-48-48s21.44-48 48-48 48 21.44 48 48-21.44 48-48 48z m0-76.8c-16 0-28.8 12.8-28.8 28.8s12.8 28.8 28.8 28.8 28.8-12.8 28.8-28.8-12.8-28.8-28.8-28.8z" fill="#f53131" p-id="901"></path></svg>