<svg t="1620656116515" class="icon" viewBox="0 0 1024 1024" version="1.1" xmlns="http://www.w3.org/2000/svg" p-id="1550" width="200" height="200"><path d="M753.4 325.06a88.17 73.12 0 1 0 176.34 0 88.17 73.12 0 1 0-176.34 0Z" fill="#f53131" p-id="1551"></path><path d="M605.02 744.71c0 52.14-41.82 94.4-93.4 94.4-51.59 0-93.4-42.26-93.4-94.4 0-52.13 41.82-94.39 93.4-94.39 51.59-0.01 93.4 42.25 93.4 94.39zM268.16 347.06c0 52.53-42.59 95.12-95.12 95.12s-95.12-42.59-95.12-95.12 42.59-95.12 95.12-95.12 95.12 42.58 95.12 95.12z" fill="#f53131" p-id="1552"></path><path d="M210.16 209.79V90.64h-62.25v119.15c-48.24 13.6-83.7 57.98-83.7 110.51s35.47 96.9 83.7 110.5v502.56h62.25V430.8c48.24-13.6 83.7-57.98 83.7-110.5s-35.46-96.9-83.7-110.51z m-31.12 181.36c-39.07 0-70.85-31.78-70.85-70.85 0-39.07 31.78-70.85 70.85-70.85 39.07 0 70.86 31.78 70.86 70.85-0.01 39.06-31.79 70.85-70.86 70.85z m448.07 345c0-52.53-35.47-96.9-83.7-110.51v-535h-62.25v535c-48.24 13.61-83.71 57.98-83.71 110.51 0 52.53 35.47 96.9 83.71 110.51v86.71h62.25v-86.71c48.23-13.61 83.7-57.98 83.7-110.51zM512.28 807c-39.07 0-70.85-31.78-70.85-70.85 0-39.07 31.78-70.85 70.85-70.85 39.07 0 70.85 31.78 70.85 70.85 0 39.07-31.78 70.85-70.85 70.85z m448.07-486.7c0-52.53-35.47-96.9-83.71-110.51V90.64H814.4v119.15c-48.24 13.6-83.71 57.98-83.71 110.51s35.47 96.9 83.71 110.5v502.56h62.24V430.8c48.25-13.6 83.71-57.98 83.71-110.5z m-114.83 70.85c-39.06 0-70.85-31.78-70.85-70.85 0-39.07 31.78-70.85 70.85-70.85 39.07 0 70.85 31.78 70.85 70.85 0.01 39.06-31.78 70.85-70.85 70.85z m0 0" fill="#f53131" p-id="1553"></path></svg>