<svg t="1620656196432" class="icon" viewBox="0 0 1024 1024" version="1.1" xmlns="http://www.w3.org/2000/svg" p-id="1170" width="200" height="200"><path d="M977.454545 0a46.545455 46.545455 0 0 1 46.545455 46.545455v930.90909a46.545455 46.545455 0 0 1-46.545455 46.545455H46.545455a46.545455 46.545455 0 0 1-46.545455-46.545455V46.545455a46.545455 46.545455 0 0 1 46.545455-46.545455h930.90909z m-46.545454 93.090909H93.090909v837.818182h837.818182V93.090909z" fill="#f53131" p-id="1171"></path><path d="M186.181818 46.545455v930.90909a46.545455 46.545455 0 0 0 93.090909 0V46.545455a46.545455 46.545455 0 1 0-93.090909 0zM744.727273 46.545455v930.90909a46.545455 46.545455 0 0 0 93.090909 0V46.545455a46.545455 46.545455 0 0 0-93.090909 0z" fill="#f53131" p-id="1172"></path><path d="M232.727273 186.181818H46.545455a46.545455 46.545455 0 1 0 0 93.090909h186.181818a46.545455 46.545455 0 1 0 0-93.090909zM232.727273 372.363636H46.545455a46.545455 46.545455 0 1 0 0 93.090909h186.181818a46.545455 46.545455 0 1 0 0-93.090909zM977.454545 372.363636h-186.181818a46.545455 46.545455 0 0 0 0 93.090909h186.181818a46.545455 46.545455 0 0 0 0-93.090909zM977.454545 558.545455h-186.181818a46.545455 46.545455 0 0 0 0 93.090909h186.181818a46.545455 46.545455 0 0 0 0-93.090909zM977.454545 744.727273h-186.181818a46.545455 46.545455 0 0 0 0 93.090909h186.181818a46.545455 46.545455 0 0 0 0-93.090909zM977.454545 186.181818h-186.181818a46.545455 46.545455 0 0 0 0 93.090909h186.181818a46.545455 46.545455 0 0 0 0-93.090909zM232.727273 558.545455H46.545455a46.545455 46.545455 0 0 0 0 93.090909h186.181818a46.545455 46.545455 0 0 0 0-93.090909zM232.727273 744.727273H46.545455a46.545455 46.545455 0 0 0 0 93.090909h186.181818a46.545455 46.545455 0 0 0 0-93.090909zM465.454545 569.437091V454.562909L561.152 512 465.454545 569.437091z m0 0l-70.469818 42.309818a46.452364 46.452364 0 0 0-22.155636 33.326546L372.363636 651.636364c0 2.932364 0.279273 5.818182 0.791273 8.564363l0.930909 4.096c1.117091 3.863273 2.746182 7.68 4.933818 11.264l2.885819 4.328728a46.219636 46.219636 0 0 0 44.032 17.780363l5.632-1.256727a46.312727 46.312727 0 0 0 11.962181-5.259636l232.029091-139.264a46.545455 46.545455 0 0 0 0-79.77891l-232.727272-139.636363A46.545455 46.545455 0 0 0 372.363636 372.363636v278.528a46.359273 46.359273 0 0 0 0.698182 8.936728l1.070546 4.468363a46.266182 46.266182 0 0 0 4.282181 10.24l3.49091 5.352728a46.778182 46.778182 0 0 0 32.674909 18.106181L418.909091 698.181818c2.932364 0 5.818182-0.279273 8.564364-0.791273l4.096-0.930909a46.405818 46.405818 0 0 0 7.633454-2.932363l4.328727-2.373818A46.545455 46.545455 0 0 0 465.454545 651.636364v-82.199273z" fill="#f53131" p-id="1173"></path></svg>