<svg t="1620655987373" class="icon" viewBox="0 0 1024 1024" version="1.1" xmlns="http://www.w3.org/2000/svg" p-id="1064" width="200" height="200"><path d="M837.63 850.01c0 16.61-13.47 30.07-30.07 30.07H98.77c-16.61 0-30.07-13.47-30.07-30.07 0-16.61 13.46-30.07 30.07-30.07h708.79c16.61-0.01 30.07 13.46 30.07 30.07z" fill="#f53131" p-id="1065"></path><path d="M512.1 271.95l-54.88 246.99C439.59 505 413.58 496 384.08 496c-53.07 0-96.02 28.63-96.02 64.01 0 35.32 42.94 64.02 96.02 64.02s96.02-28.7 96.02-64.02l49.79-224.04h110.24l64.02-64.02H512.1z m416.08 608.13c-17.65 0-32-14.38-32-32.01 0-17.7 14.34-32.01 32-32.01 17.7 0 32.01-14.32 32.01-32L843.11 140.12c-5.31-34.06-34.64-60.13-70.21-60.13-0.12 0-0.12-0.07-0.22-0.07H247.42c-32.47 2.13-58.8 25.88-64.92 57.14L68.7 819.93c-2.75 8.95-4.69 18.26-4.69 28.14 0 52.94 43.07 96.02 96.02 96.02h768.15c17.7 0 32.01-14.31 32.01-32 0-17.69-14.32-32.01-32.01-32.01z m-90.55 0h-677.6c-17.66 0-32-14.38-32-32.01 0-17.7 14.35-32.01 32-32.01h677.6c-3.53 10-5.46 20.76-5.46 32.01 0 11.19 1.93 22 5.46 32.01z m-677.6-128.03c-5.41 0-10.66 0.75-15.82 1.56l1.82-8.25 100.24-601.43h531.67l111.49 608.12h-729.4z m0 0" fill="#f53131" p-id="1066"></path></svg>