<svg t="1620655598099" class="icon" viewBox="0 0 1024 1024" version="1.1" xmlns="http://www.w3.org/2000/svg" p-id="845" width="200" height="200"><path d="M164.632676 272.863416c-5.716412 0-11.813919-2.286565-16.387049-6.859694-8.765166-9.14626-8.765166-23.627838 0-32.393004 42.301451-41.920357 89.557127-68.215854 132.239673-73.170078 42.682546-5.335318 94.511351 8.765166 145.959062 39.633792 10.670636 6.478601 14.481578 20.579084 8.002977 31.249721-6.478601 10.670636-20.579084 14.481578-31.249721 8.002978-41.920357-25.152214-84.602903-37.347227-116.995906-33.536286s-70.883513 25.914403-105.563082 60.212877c-4.192036 4.57313-9.908448 6.859695-16.005954 6.859694zM852.888723 272.863416c-5.716412 0-11.813919-2.286565-16.005954-6.4786-34.679568-34.298474-73.170078-56.401935-105.563082-60.212877s-75.075549 8.384071-116.995906 33.536286c-10.670636 6.478601-24.77112 3.048753-31.249721-8.002978-6.478601-10.670636-3.048753-24.77112 8.002978-31.24972 51.447711-30.868627 103.276517-44.588016 145.959062-39.633793 43.06364 5.335318 89.938221 31.249721 132.239672 73.170078 9.14626 8.765166 9.14626 23.246744 0 32.393004-4.57313 4.192036-10.670636 6.478601-16.387049 6.4786z" fill="#f53131" p-id="846"></path><path d="M936.348344 1024H87.651656c-48.398958 0-87.651656-39.252698-87.651656-87.651656V87.651656C0 39.252698 39.252698 0 87.651656 0h848.315594c48.398958 0 87.651656 39.252698 87.651656 87.651656v848.315594c0.381094 48.398958-39.252698 88.03275-87.270562 88.03275zM87.651656 45.731299c-23.246744 0-41.920357 18.673614-41.920357 41.920357v848.315594c0 23.246744 18.673614 41.920357 41.920357 41.920357h848.315594c23.246744 0 41.920357-18.673614 41.920357-41.920357V87.651656c0-23.246744-18.673614-41.920357-41.920357-41.920357H87.651656z" fill="#f53131" p-id="847"></path><path d="M629.948642 881.089691h-236.278378c-12.576107 0-22.865649-10.289542-22.865649-22.865649s10.289542-22.865649 22.865649-22.86565h236.278378c12.576107 0 22.865649 10.289542 22.865649 22.86565s-10.289542 22.865649-22.865649 22.865649z" fill="#f53131" p-id="848"></path><path d="M316.689245 599.080015c-89.557127 0-162.727205-72.788984-162.727206-162.727205 0-89.557127 72.788984-162.727205 162.727206-162.727205s162.727205 72.788984 162.727205 162.727205c-0.381094 89.557127-73.170078 162.727205-162.727205 162.727205z m0-279.723111c-64.404913 0-116.995906 52.590994-116.995907 116.995906s52.590994 116.995906 116.995907 116.995906 116.995906-52.590994 116.995906-116.995906S381.094157 319.356904 316.689245 319.356904zM707.310755 599.080015c-89.557127 0-162.727205-72.788984-162.727205-162.727205 0-89.557127 72.788984-162.727205 162.727205-162.727205s162.727205 72.788984 162.727206 162.727205c0 89.557127-73.170078 162.727205-162.727206 162.727205z m0-279.723111c-64.404913 0-116.995906 52.590994-116.995906 116.995906s52.590994 116.995906 116.995906 116.995906 116.995906-52.590994 116.995907-116.995906-52.590994-116.995906-116.995907-116.995906z" fill="#f53131" p-id="849"></path><path d="M266.76591 737.798288c-41.539263 0-81.173055-2.286565-110.8984-6.097506-33.91738-4.57313-64.404913-10.670636-64.404912-36.58504s30.487533-32.393003 64.404912-36.585039c29.725344-3.810942 68.978042-6.097507 110.8984-6.097506s81.173055 2.286565 110.8984 6.097506c33.91738 4.57313 64.404913 10.670636 64.404912 36.585039s-30.487533 32.393003-64.404912 36.58504c-29.725344 3.810942-69.359137 6.097507-110.8984 6.097506z m137.574991-27.057685zM757.23409 737.798288c-41.539263 0-81.173055-2.286565-110.8984-6.097506-33.91738-4.57313-64.404913-10.670636-64.404912-36.58504s30.487533-32.393003 64.404912-36.585039c29.725344-3.810942 68.978042-6.097507 110.8984-6.097506s81.173055 2.286565 110.8984 6.097506c33.91738 4.57313 64.404913 10.670636 64.404912 36.585039s-30.487533 32.393003-64.404912 36.58504c-30.106438 3.810942-69.359137 6.097507-110.8984 6.097506z m137.193897-27.057685z" fill="#f53131" p-id="850"></path></svg>