<svg t="1620486548742" class="icon" viewBox="0 0 1024 1024" version="1.1" xmlns="http://www.w3.org/2000/svg" p-id="807" width="200" height="200"><path d="M806.8 700.5l-0.3 0.3c-8 8.3-4 22.2 7.3 24.8 67.6 16 102.1 35.6 102.1 49.2 0 26.8-134.3 76.9-390.9 76.9s-390.9-50-390.9-76.9c0-14.4 38.6-35.4 113.9-51.9 9.3-2 14.2-12.1 10.3-20.7 0-0.1-0.1-0.2-0.1-0.3-2.9-6.3-9.8-9.8-16.6-8.3-79.4 17-137.8 43.3-137.8 81.2 0 78.7 252 107.2 421.3 107.2s421.3-28.6 421.3-107.2c0-35.9-52.4-61.3-125.5-78.4-5.1-1.2-10.5 0.3-14.1 4.1z" fill="#f53131" p-id="808"></path><path d="M631.6 546.1l42.8 42.8V685c0 16.4-13.4 29.8-29.8 29.8h-114c-16.4 0-29.8-13.4-29.8-29.8v-99.3l39.7-39.7h91.1z" fill="#f53131" p-id="809"></path><path d="M438.9 399.1c-6.1 0-11.8-3.7-14.2-9.7-3-7.8 0.8-16.6 8.7-19.7 10.5-4.1 19.1-11.3 24.9-20.9 11.6-19.1 3.6-30.8-20.4-57.1-25.1-27.5-59.6-65.1-23.6-124.2 12.5-20.5 33.3-34.4 57.1-38 8.2-1.2 16 4.4 17.3 12.7 1.3 8.3-4.4 16-12.7 17.3-14.9 2.3-27.9 10.9-35.7 23.8-23 37.7-7.4 58 20 87.9 21.6 23.6 48.6 53.1 24 93.5-9.4 15.4-23.1 26.9-39.9 33.4-1.8 0.7-3.6 1-5.5 1z" fill="#f53131" p-id="810"></path><path d="M588.6 248.7c10.7-4.4 19.9-12.2 25.7-22.9 30.4-55.4-88.8-71.7-47-147.9 7.9-14.4 21.8-23.6 37.3-26.2" fill="#f53131" p-id="811"></path><path d="M588.6 263.9c-6 0-11.6-3.5-14-9.4-3.2-7.8 0.5-16.6 8.2-19.8 7.9-3.3 14.2-8.9 18.2-16.2 7.4-13.4 2.4-21.3-20.1-43.1-21.9-21.3-55-53.6-26.9-104.8 9.9-17.9 27.4-30.3 48-33.9 8.3-1.4 16.1 4.1 17.6 12.4 1.4 8.3-4.1 16.1-12.4 17.6-11.5 2-21.2 8.8-26.6 18.6-16.2 29.5-3.1 44.5 21.5 68.4 19 18.5 45.1 43.9 25.6 79.5-7.4 13.5-18.9 23.7-33.3 29.6-1.9 0.7-3.8 1.1-5.8 1.1zM864.4 459.4c1.3-13.4 1.9-26.8 1.9-40 0-1.6-0.3-3.2-0.7-4.7 1-3.4 1.6-6.9 1.6-10.5 0-61.9-153-93.1-304.6-96.7-9.8-0.2-19.8-0.4-29.9-0.4-8.4 0-15.2 6.8-15.2 15.2v0.8c0.4 8 7.1 14.4 15.2 14.4 9.8 0 19.6 0.1 29.2 0.3 183.1 4.3 274.9 44.9 274.9 66.4 0 4.5-3.9 9.7-11.5 15.2-27.9 20.1-106.3 44.1-232 50.1-6.1 0.5-14.8 1.2-25.1 1.5-18 0.6-31.4 0-35.5-0.1-65.8-2.6-211 7.3-292.7-51.5-7.7-5.5-11.5-10.7-11.5-15.2 0-13.1 43.8-45.1 179.1-60.1 8-0.9 13.9-7.9 13.5-15.9 0-0.3 0-0.6-0.1-0.9-0.9-8.3-8.5-14.2-16.8-13.4-62 6.9-206.1 29.4-206.1 90.3 0 3.2 0.4 6.4 1.3 9.5-0.7 1.8-1.1 3.7-1.1 5.7 0 199.3 107.5 357.9 255.6 377.1 19.2 2.5 48.3 3.8 77.5 3.8 29.2 0 58.3-1.3 77.5-3.8 81.7-10.6 149.2-69.4 194.5-147.1h42.4c52.9 0 95.9-43 95.9-95.9 0.1-46.5-33.2-85.4-77.3-94.1zM587.6 634.6c8.4 0 15.2-6.8 15.2-15.2v-42.9H619l25 25v83H531.2v-86.1l21.9-21.9h19.3v42.9c0 8.4 6.8 15.2 15.2 15.2z m199.7-17.5c-2.4 4.6-4.9 9.2-7.4 13.7-2.6 4.5-5.2 9-7.9 13.4-40.4 65.1-98.1 113.3-166.9 122.3-36.5 4.7-110.7 4.7-147.2 0-125.8-16.4-219-148.3-228.4-318.6 56.3 35.2 180.3 53.5 303.2 53.5 13.2 0 26.5-0.2 39.7-0.6v45.4h-31.9l-39.7 39.7V685c0 16.4 13.4 29.8 29.8 29.8h113.9c16.4 0 29.8-13.4 29.8-29.8v-96.2L631.5 546h-28.8v-46.8c38.7-2.2 76.2-6.3 110.1-12.1 7.4-1.3 14.5-2.6 21.5-4.1 14.9-3.1 28.9-6.5 41.9-10.3 15.4-4.5 29.3-9.6 41.3-15.2 6.3-2.9 12-5.9 17.2-9.1-0.2 3-0.5 6.1-0.8 9.1-0.5 5.1-1.1 10.1-1.7 15.2-0.7 5.1-1.4 10.1-2.3 15.2-7.3 44.9-22 89.3-42.6 129.2z m58.5 2h-26.2c19.6-40.6 33.6-85 40.9-129.5 29.1 6.7 50.9 32.8 50.9 63.9 0 36.2-29.4 65.6-65.6 65.6z" fill="#f53131" p-id="812"></path></svg>