<svg t="1620486770946" class="icon" viewBox="0 0 1024 1024" version="1.1" xmlns="http://www.w3.org/2000/svg" p-id="829" width="200" height="200"><path d="M848.213333 76.8H186.026667c-52.821333 0-81.92 28.484267-81.92 80.213333v728.746667c0 49.885867 29.866667 78.506667 81.92 78.506667H848.213333c50.619733 0 78.506667-27.886933 78.506667-78.506667V157.013333c0-51.729067-27.886933-80.213333-78.506667-80.213333z m-662.186666 34.133333h662.186666c31.931733 0 44.373333 12.919467 44.373334 46.08v187.733334H138.24v-187.733334c0-32.733867 13.841067-46.08 47.786667-46.08z m520.533333 546.133334c-14.967467 0-27.392-5.461333-39.867733-17.885867-10.325333-9.181867-14.7456-20.667733-14.7456-38.434133v-221.866667h110.933333v221.866667c0 16.247467-5.239467 28.4672-17.186133 39.133866-11.7248 11.7248-24.1664 17.186133-39.133867 17.186134z m-196.266667 0h-11.451733c-11.246933-3.140267-20.258133-8.584533-26.794667-16.213334a14.848 14.848 0 0 0-1.621333-1.655466c-11.229867-9.984-16.452267-22.203733-16.452267-38.4512v-221.866667h110.933334v221.866667c0 17.7664-4.420267 29.252267-15.4624 39.133866-11.741867 11.7248-24.183467 17.186133-39.150934 17.186134z m-201.386666 0c-14.250667 0-26.2144-4.949333-37.2736-15.36a17.442133 17.442133 0 0 0-2.798934-4.420267c-9.915733-11.332267-14.5408-22.9376-14.5408-36.539733v-221.866667h110.933334v221.866667c0 16.247467-5.2224 28.4672-16.452267 38.4512a15.650133 15.650133 0 0 0-1.416533 1.399466c-9.984 11.229867-22.203733 16.469333-38.4512 16.469334z m-170.666667 228.693333V378.88h81.92v221.866667c0 20.8896 6.7584 39.304533 20.616533 56.2176 1.536 3.413333 3.652267 5.853867 4.864 7.048533 13.636267 13.6192 29.1328 22.135467 46.199467 25.514667V930.133333h-105.813333c-33.4848 0-47.786667-13.2608-47.786667-44.373333z m187.733333 44.373333V689.6128a80.128 80.128 0 0 0 46.216534-25.582933c18.0224-16.366933 27.170133-37.649067 27.170133-63.2832v-221.866667h20.48v221.866667c0 25.582933 9.096533 46.830933 27.050667 63.1808 10.4448 11.8272 24.6784 20.394667 41.216 25.326933V930.133333h-162.133334z m196.266667 0V690.039467a86.664533 86.664533 0 0 0 50.5856-25.326934c17.629867-15.6672 26.197333-36.590933 26.197333-63.9488v-221.866666H617.813333v221.866666c0 27.374933 8.584533 48.2816 25.480534 63.266134 13.636267 13.6192 29.115733 22.152533 46.199466 25.514666V930.133333h-167.253333z m325.973333 0h-124.586666V689.527467c17.032533-3.328 32.375467-11.741867 45.4656-24.832 18.5344-16.469333 27.921067-37.973333 27.921066-63.9488v-221.866667h95.573334v506.88c0 31.522133-12.8512 44.373333-44.373334 44.373333z" fill="#f53131" p-id="830"></path><path d="M738.986667 174.08c-13.653333 0-25.6 5.12-35.84 15.36-10.257067 10.24-15.36 23.893333-15.36 37.546667 0 13.653333 5.12 27.306667 15.36 37.546666 10.24 8.533333 22.186667 15.36 35.84 15.36 15.36 0 27.323733-6.826667 37.546666-15.36 10.24-10.24 15.36-23.893333 15.36-37.546666 0-13.653333-5.137067-27.306667-15.36-37.546667s-22.186667-15.36-37.546666-15.36zM605.866667 235.52c5.12-5.12 6.826667-11.946667 6.826666-18.773333 0-5.12-1.723733-11.946667-6.826666-17.066667-5.12-5.12-11.946667-8.533333-18.773334-8.533333H249.173333c-5.12 0-11.946667 3.413333-17.066666 8.533333-5.12 5.12-8.533333 11.946667-8.533334 17.066667 0 6.826667 3.413333 13.653333 8.533334 18.773333 5.12 5.12 11.946667 6.826667 17.066666 6.826667h337.92c6.826667 0 13.653333-1.706667 18.773334-6.826667z" fill="#f53131" p-id="831"></path></svg>