<svg t="1620486830318" class="icon" viewBox="0 0 1024 1024" version="1.1" xmlns="http://www.w3.org/2000/svg" p-id="1037" width="200" height="200"><path d="M730.453333 341.333333h116.053334v88.746667h-116.053334zM730.453333 575.146667h116.053334v87.04h-116.053334zM539.306667 341.333333h114.346666v88.746667h-114.346666zM360.106667 341.333333h114.346666v88.746667h-114.346666zM182.613333 341.333333h114.346667v88.746667h-114.346667zM182.613333 575.146667h114.346667v87.04h-114.346667zM539.306667 575.146667h114.346666v87.04h-114.346666zM360.106667 575.146667h114.346666v87.04h-114.346666z" fill="#f53131" p-id="1038"></path><path d="M925.013333 68.266667H104.106667C53.128533 68.266667 23.893333 97.501867 23.893333 148.48V875.52c0 50.978133 29.2352 80.213333 80.213334 80.213333h820.906666c50.619733 0 78.506667-28.484267 78.506667-80.213333V148.48c0-51.729067-27.886933-80.213333-78.506667-80.213333zM298.666667 768h194.56v153.6H298.666667v-153.6z m228.693333 0h201.386667v153.6H527.36v-153.6z m218.453333-34.133333H58.026667V250.88h911.36V733.866667H745.813333z m-17.066666-517.12H527.36V102.4h201.386667v114.346667z m-235.52 0H298.666667V102.4h194.56v114.346667z m476.16-68.266667v68.266667H762.88V102.4h162.133333c31.931733 0 44.373333 12.919467 44.373334 46.08zM104.106667 102.4h160.426666v114.346667H58.026667v-68.266667c0-32.290133 13.789867-46.08 46.08-46.08zM58.026667 875.52V768h206.506666v153.6H104.106667c-32.290133 0-46.08-13.789867-46.08-46.08zM925.013333 921.6h-162.133333v-153.6h206.506667v107.52c0 33.160533-12.4416 46.08-44.373334 46.08z" fill="#f53131" p-id="1039"></path></svg>