<svg t="1620486045895" class="icon" viewBox="0 0 1024 1024" version="1.1" xmlns="http://www.w3.org/2000/svg" p-id="2343" width="200" height="200"><path d="M895.77425 262.953086c-0.361199-0.361199-1.083598-1.083598-1.444797-1.805996-6.140388-5.779189-13.364374-9.029982-20.949559-8.668783-7.585185 0-14.447972 3.250794-19.865961 8.307584-5.05679 5.05679-8.307584 11.558377-8.668783 18.782363 0 0.361199 0 0.361199 0 0.722399 0 0 0 0.361199 0 0.361199 0 7.223986 2.167196 13.725573 6.140388 18.782363l0.361199 0.361199 0 0.361199c5.05679 8.307584 9.752381 16.615168 14.447972 24.922751-31.063139 18.421164-78.741446 57.069489-78.380247 117.389771 0.722399 80.186243-8.307584 96.079012-11.919577 98.968607-6.501587 3.973192-27.451146 3.973192-37.564727 3.973192-16.253968 0-38.287125 0.361199-46.594709 19.143563-1.444797 1.805996-3.973192 5.417989-6.140388 8.307584-30.70194 40.81552-57.069489 79.825044-44.066314 111.971781 6.140388 14.809171 15.17037 29.979541 24.200353 44.788713 7.585185 13.003175 15.892769 26.367549 19.865961 36.481129 9.391182 23.839153 8.307584 33.230335 3.611993 40.093122-11.197178 15.892769-15.892769 35.397531-17.698765 48.761905-0.722399 6.140388-1.083598 11.558377-1.083598 16.253968-56.34709 23.477954-117.389771 33.591534-179.877249 28.895944-42.260317-3.250794-82.714638-12.641975-120.640564-28.534744-7.223986-39.370723-9.029982-64.293474-7.946384-76.213051 4.334392 0.361199 9.752381 0.361199 15.53157-0.722399 13.725573-2.528395 79.102646-26.006349 92.467019-43.705115 13.003175-17.337566 5.779189-39.009524-9.752381-86.326631-2.528395-7.585185-5.05679-14.809171-6.862787-21.671958-0.722399-1.805996-0.361199-9.391182 25.64515-28.534744 2.528395-1.805996 4.334392-3.250794 5.779189-4.334392 3.611993-2.889594 20.22716-12.641975 28.895944-17.698765 16.976367-10.11358 21.671958-12.641975 25.283951-16.253968 12.280776-11.919577 27.812346-64.654674 27.812346-83.075838 0-30.70194-35.75873-42.621517-50.929101-47.678307-16.976367-5.779189-34.675132-9.391182-38.287125-10.11358-7.223986-1.444797-12.280776-2.167196-51.2903 15.53157-31.424339 14.447972-40.81552 21.671958-45.511111 27.451146-7.223986 4.695591-26.728748 10.835979-33.591534 9.391182-27.451146-5.779189-106.192593 6.140388-138.700529 27.812346-16.976367 11.197178-54.541093 34.675132-77.657848 49.123104-3.973192-27.812346-4.695591-55.985891-2.889594-84.520635 3.611993-47.678307 15.53157-93.911817 35.397531-136.533333C182.044444 300.156614 209.495591 261.508289 243.809524 228.277954c3.611993-3.611993 7.585185-6.862787 11.197178-10.47478l46.594709 27.451146L429.82716 296.183422l120.640564 0 70.072663-88.132628 6.862787-77.296649c35.397531 9.752381 68.627866 24.561552 99.691005 44.066314l1.805996 1.083598 1.444797 0 0.361199 0c1.805996 0.722399 3.973192 1.444797 6.501587 1.444797 8.668783 0.722399 16.615168-2.528395 22.755556-8.307584 5.05679-5.05679 7.946384-11.558377 8.668783-18.782363 0.722399-11.558377-5.417989-22.394356-15.892769-28.173545l0 0 0 0c-62.848677-38.648325-131.476543-61.042681-203.716402-66.46067-61.40388-4.695591-121.362963 3.250794-178.793651 22.394356C314.604586 97.52381 263.314286 126.419753 218.886772 165.068078c-7.223986 6.501587-14.447972 13.003175-21.310758 19.865961C162.539683 218.886772 133.643739 258.257496 111.249383 301.601411c-27.812346 54.179894-44.066314 112.332981-48.400705 173.375661-4.695591 61.40388 3.250794 121.362963 22.394356 178.793651 18.782363 55.263492 47.678307 106.192593 86.326631 150.981305s84.520635 80.908642 136.533333 107.63739c54.179894 27.812346 112.332981 44.066314 173.375661 48.400705 61.40388 4.695591 121.362963-3.250794 178.793651-22.394356 55.263492-18.782363 106.192593-47.678307 150.981305-86.326631 7.223986-6.501587 14.447972-13.003175 21.310758-19.865961 35.036332-34.313933 63.932275-73.684656 86.326631-117.028571 27.812346-54.179894 44.066314-112.69418 48.400705-173.375661C975.238095 443.552734 950.315344 347.112522 895.77425 262.953086zM547.578131 117.028571c7.585185 0.361199 15.17037 1.444797 22.755556 2.167196l-5.779189 66.46067L522.29418 238.391534 440.663139 238.391534 326.885362 193.241623l-22.755556-13.725573C375.647266 132.92134 460.167901 110.526984 547.578131 117.028571zM221.053968 764.658907c-36.119929-41.899118-62.487478-89.577425-78.380247-140.867725 10.835979-6.862787 72.601058-44.788713 96.440212-60.681481 18.421164-12.280776 80.908642-21.671958 94.995414-19.143563 26.728748 5.417989 71.51746-8.668783 88.132628-27.451146 8.307584-5.417989 36.842328-18.782363 49.845503-23.839153 10.835979 2.528395 24.561552 6.501587 33.591534 10.47478-2.528395 10.11358-7.223986 23.839153-10.11358 31.424339-3.611993 2.167196-8.668783 5.05679-12.641975 7.585185-17.698765 10.47478-29.618342 17.698765-36.119929 22.755556-0.722399 0.722399-2.167196 1.444797-3.611993 2.528395-16.615168 12.280776-61.40388 45.149912-46.594709 92.10582 2.167196 7.223986 4.695591 14.809171 7.223986 22.755556 3.250794 10.11358 8.307584 24.922751 11.197178 35.75873-15.17037 7.585185-40.454321 18.059965-49.123104 19.504762-1.083598 0.361199-3.973192 0-6.140388-0.361199-10.835979-1.083598-44.066314-4.695591-54.541093 39.731922-3.250794 13.725573-3.250794 34.313933 0 61.40388C274.150265 818.116402 245.97672 793.193651 221.053968 764.658907zM910.222222 537.46455c-3.611993 47.678307-15.53157 93.911817-35.397531 136.533333-19.865961 42.621517-47.317108 81.269841-81.269841 114.500176-5.779189 5.779189-12.280776 11.558377-18.421164 16.976367-11.197178 9.752381-22.755556 18.782363-35.036332 26.728748 19.504762-34.675132 5.05679-71.51746-1.444797-87.410229-5.779189-14.809171-15.17037-29.979541-24.200353-45.149912-7.223986-11.919577-14.447972-24.200353-19.143563-34.313933 1.083598-6.862787 8.668783-22.033157 35.397531-57.791887 1.083598-1.805996 2.528395-3.250794 3.250794-4.334392 1.444797 0 2.528395 0 3.611993 0 19.504762 0 45.87231-0.361199 65.738272-11.558377 35.036332-19.865961 41.537919-70.072663 41.17672-149.536508-0.361199-28.895944 24.200353-50.567901 44.066314-63.571076C906.971429 429.104762 914.195414 482.923457 910.222222 537.46455z" p-id="2344" fill="#f53131"></path></svg>